# xmcd
#
# Track frame offsets:
#	150
#	19776
#	33194
#	49517
#	66169
#	80429
#	93468
#	107208
#	123534
#	141069
#	156284
#	169566
#	184438
#	200694
#	215428
#	229540
#	243549
#
# Disc length: 3463 seconds
#
# Revision: 0
# Processed by: cddbd v1.5.1PL0 Copyright (c) Steve Scherf et al.
# Submitted via: dBpowerAMP V4.0
#
DISCID=ea0d8511
DTITLE=Painel de Controle - Qualidade Musical - Vol 2
DYEAR=2003
DGENRE=Country
TTITLE0=Anjo
TTITLE1=Dificil te amar
TTITLE2=Prisioneira
TTITLE3=Tudo por voce
TTITLE4=Paixao ardente
TTITLE5=Vem dancar comigo
TTITLE6=Fogo ardente
TTITLE7=Agora eu sei
TTITLE8=Voltei
TTITLE9=Sonho blue
TTITLE10=Sem voce
TTITLE11=Pra sempre te amarei
TTITLE12=Por amor
TTITLE13=Vento do norte
TTITLE14=Acorrentado pela solidao
TTITLE15=Sonho de paixao
TTITLE16=Eu, voce e os astros
EXTD=
EXTT0=
EXTT1=
EXTT2=
EXTT3=
EXTT4=
EXTT5=
EXTT6=
EXTT7=
EXTT8=
EXTT9=
EXTT10=
EXTT11=
EXTT12=
EXTT13=
EXTT14=
EXTT15=
EXTT16=
PLAYORDER=
